<svg width="14" height="16" viewBox="0 0 14 16" fill="none" xmlns="http://www.w3.org/2000/svg">
<path d="M6.89843 15.0029L6.3361 15.3671L7.46072 15.3672L6.89843 15.0029ZM10.5204 8.18056L6.33614 14.6385L7.46072 15.3672L11.6449 8.90927L10.5204 8.18056ZM6.89843 15.0029C7.46077 14.6386 7.46076 14.6386 7.46074 14.6386C7.46047 14.6382 7.45971 14.637 7.45918 14.6362C7.45812 14.6345 7.45654 14.6321 7.45445 14.6289C7.45027 14.6224 7.44402 14.6128 7.4358 14.6001C7.41934 14.5747 7.39495 14.537 7.36319 14.488C7.29967 14.3899 7.20669 14.2464 7.08885 14.0645C6.85318 13.7007 6.51807 13.1834 6.12032 12.5694C5.32481 11.3416 4.27874 9.72702 3.27647 8.18056L2.15198 8.90935C3.15419 10.4557 4.20022 12.0702 4.99571 13.298C5.39344 13.912 5.72855 14.4292 5.96421 14.793C6.08204 14.9749 6.17502 15.1184 6.23853 15.2165C6.27029 15.2655 6.29468 15.3032 6.31113 15.3286C6.31936 15.3413 6.3256 15.3509 6.32979 15.3574C6.33188 15.3606 6.33346 15.363 6.33451 15.3647C6.33504 15.3655 6.33584 15.3667 6.3361 15.3671C6.33611 15.3671 6.3361 15.3671 6.89843 15.0029ZM8.18882 5.90105C8.18882 6.61371 7.61109 7.19143 6.89843 7.19143V8.53143C8.35116 8.53143 9.52882 7.35377 9.52882 5.90105H8.18882ZM6.89843 7.19143C6.18577 7.19143 5.60805 6.61371 5.60805 5.90105H4.26805C4.26805 7.35377 5.44571 8.53143 6.89843 8.53143V7.19143ZM5.60805 5.90105C5.60805 5.18838 6.18577 4.61066 6.89843 4.61066V3.27066C5.44571 3.27066 4.26805 4.44832 4.26805 5.90105H5.60805ZM6.89843 4.61066C7.61109 4.61066 8.18882 5.18838 8.18882 5.90105H9.52882C9.52882 4.44832 8.35116 3.27066 6.89843 3.27066V4.61066ZM3.27647 8.18056C2.43283 6.87887 2.51283 5.2623 3.24805 3.93789C3.98335 2.61335 5.32563 1.67008 6.89843 1.67008V0.330078C4.75821 0.330078 3.00614 1.61283 2.07647 3.28751C1.14672 4.96233 0.991133 7.1182 2.15198 8.90935L3.27647 8.18056ZM6.89843 1.67008C8.47123 1.67008 9.81352 2.61335 10.5488 3.9379C11.284 5.2623 11.364 6.87887 10.5204 8.18056L11.6449 8.90927C12.8057 7.11812 12.6502 4.96233 11.7204 3.28751C10.7907 1.61283 9.03865 0.330078 6.89843 0.330078V1.67008Z" fill="black"/>
</svg>
